<svg width="81" height="23" viewBox="0 0 81 23" fill="none" xmlns="http://www.w3.org/2000/svg">
<path d="M0.816 1.008C1.216 1.024 1.752 1.04 2.424 1.056C3.112 1.072 3.792 1.08 4.464 1.08C5.232 1.08 5.976 1.072 6.696 1.056C7.416 1.04 7.928 1.032 8.232 1.032C9.72 1.032 10.952 1.2 11.928 1.536C12.92 1.856 13.656 2.328 14.136 2.952C14.632 3.576 14.88 4.328 14.88 5.208C14.88 5.752 14.768 6.304 14.544 6.864C14.32 7.408 13.936 7.92 13.392 8.4C12.864 8.864 12.136 9.24 11.208 9.528C10.28 9.8 9.112 9.936 7.704 9.936H5.4V9.456H7.464C8.408 9.456 9.12 9.28 9.6 8.928C10.096 8.56 10.432 8.08 10.608 7.488C10.8 6.88 10.896 6.208 10.896 5.472C10.896 4.208 10.672 3.232 10.224 2.544C9.776 1.84 9.008 1.488 7.92 1.488C7.296 1.488 6.888 1.624 6.696 1.896C6.52 2.168 6.432 2.72 6.432 3.552V15.456C6.432 16.032 6.472 16.464 6.552 16.752C6.648 17.04 6.824 17.232 7.08 17.328C7.336 17.424 7.72 17.488 8.232 17.52V18C7.8 17.968 7.256 17.952 6.6 17.952C5.944 17.936 5.28 17.928 4.608 17.928C3.84 17.928 3.112 17.936 2.424 17.952C1.752 17.952 1.216 17.968 0.816 18V17.52C1.328 17.488 1.712 17.424 1.968 17.328C2.224 17.232 2.392 17.04 2.472 16.752C2.568 16.464 2.616 16.032 2.616 15.456V3.552C2.616 2.96 2.568 2.528 2.472 2.256C2.392 1.968 2.216 1.776 1.944 1.68C1.688 1.568 1.312 1.504 0.816 1.488V1.008ZM5.352 9.528C6.04 9.544 6.632 9.576 7.128 9.624C7.64 9.672 8.088 9.72 8.472 9.768C8.856 9.8 9.2 9.824 9.504 9.84C10.96 9.968 12.032 10.28 12.72 10.776C13.424 11.272 13.88 12.016 14.088 13.008L14.64 15.48C14.784 16.12 14.936 16.568 15.096 16.824C15.256 17.08 15.488 17.208 15.792 17.208C16 17.192 16.168 17.144 16.296 17.064C16.44 16.968 16.592 16.832 16.752 16.656L17.088 16.944C16.656 17.44 16.192 17.792 15.696 18C15.2 18.224 14.6 18.336 13.896 18.336C13.032 18.336 12.32 18.152 11.76 17.784C11.2 17.416 10.832 16.736 10.656 15.744L10.224 13.344C10.112 12.672 9.976 12.088 9.816 11.592C9.656 11.08 9.432 10.68 9.144 10.392C8.872 10.088 8.488 9.936 7.992 9.936H5.4L5.352 9.528ZM23.3852 5.256C24.7932 5.256 25.8972 5.672 26.6972 6.504C27.4972 7.336 27.8972 8.696 27.8972 10.584H20.0012L19.9532 10.128H24.8732C24.8892 9.344 24.8412 8.624 24.7292 7.968C24.6172 7.296 24.4412 6.76 24.2012 6.36C23.9612 5.96 23.6412 5.76 23.2412 5.76C22.6812 5.76 22.2012 6.112 21.8012 6.816C21.4172 7.52 21.1852 8.688 21.1052 10.32L21.1772 10.464C21.1612 10.656 21.1452 10.856 21.1292 11.064C21.1292 11.272 21.1292 11.488 21.1292 11.712C21.1292 12.816 21.2812 13.712 21.5852 14.4C21.9052 15.088 22.3052 15.592 22.7852 15.912C23.2652 16.216 23.7532 16.368 24.2492 16.368C24.5852 16.368 24.9292 16.32 25.2812 16.224C25.6492 16.112 26.0172 15.92 26.3852 15.648C26.7532 15.36 27.0972 14.96 27.4172 14.448L27.8492 14.592C27.6572 15.2 27.3532 15.792 26.9372 16.368C26.5212 16.944 25.9932 17.416 25.3532 17.784C24.7132 18.152 23.9452 18.336 23.0492 18.336C21.9612 18.336 21.0012 18.104 20.1692 17.64C19.3372 17.176 18.6812 16.472 18.2012 15.528C17.7372 14.584 17.5052 13.384 17.5052 11.928C17.5052 10.44 17.7532 9.2 18.2492 8.208C18.7612 7.216 19.4572 6.48 20.3372 6C21.2332 5.504 22.2492 5.256 23.3852 5.256ZM34.0389 5.256C34.7109 5.256 35.2949 5.344 35.7909 5.52C36.3029 5.68 36.6709 5.84 36.8949 6C37.4389 6.368 37.7749 6.128 37.9029 5.28H38.4069C38.3749 5.728 38.3509 6.28 38.3349 6.936C38.3189 7.576 38.3109 8.432 38.3109 9.504H37.8069C37.7269 8.912 37.5749 8.328 37.3509 7.752C37.1269 7.176 36.7989 6.704 36.3669 6.336C35.9509 5.968 35.4069 5.784 34.7349 5.784C34.2709 5.784 33.8789 5.92 33.5589 6.192C33.2389 6.448 33.0789 6.824 33.0789 7.32C33.0789 7.8 33.2229 8.224 33.5109 8.592C33.7989 8.944 34.1669 9.288 34.6149 9.624C35.0789 9.944 35.5589 10.288 36.0549 10.656C36.5829 11.056 37.0629 11.456 37.4949 11.856C37.9269 12.24 38.2709 12.664 38.5269 13.128C38.7829 13.592 38.9109 14.144 38.9109 14.784C38.9109 15.504 38.7029 16.136 38.2869 16.68C37.8709 17.208 37.3189 17.616 36.6309 17.904C35.9589 18.192 35.2069 18.336 34.3749 18.336C33.8949 18.336 33.4629 18.288 33.0789 18.192C32.7109 18.096 32.3909 17.976 32.1189 17.832C31.9109 17.736 31.7109 17.648 31.5189 17.568C31.3429 17.472 31.1749 17.392 31.0149 17.328C30.8549 17.28 30.7109 17.336 30.5829 17.496C30.4709 17.656 30.3829 17.88 30.3189 18.168H29.8149C29.8469 17.656 29.8709 17.032 29.8869 16.296C29.9029 15.56 29.9109 14.584 29.9109 13.368H30.4149C30.5109 14.232 30.6869 15 30.9429 15.672C31.1989 16.328 31.5429 16.848 31.9749 17.232C32.4229 17.6 32.9829 17.784 33.6549 17.784C33.9269 17.784 34.1909 17.728 34.4469 17.616C34.7029 17.504 34.9109 17.32 35.0709 17.064C35.2469 16.808 35.3349 16.48 35.3349 16.08C35.3349 15.376 35.1029 14.792 34.6389 14.328C34.1909 13.864 33.6149 13.36 32.9109 12.816C32.3989 12.4 31.9109 11.992 31.4469 11.592C30.9989 11.176 30.6309 10.728 30.3429 10.248C30.0549 9.752 29.9109 9.192 29.9109 8.568C29.9109 7.848 30.1029 7.24 30.4869 6.744C30.8709 6.248 31.3749 5.88 31.9989 5.64C32.6389 5.384 33.3189 5.256 34.0389 5.256ZM45.2449 1.656V5.592H48.0769V6.072H45.2449V15.768C45.2449 16.248 45.3329 16.592 45.5089 16.8C45.6849 16.992 45.9489 17.088 46.3009 17.088C46.5889 17.088 46.8769 16.984 47.1649 16.776C47.4529 16.552 47.7089 16.176 47.9329 15.648L48.3409 15.864C48.0849 16.584 47.6929 17.176 47.1649 17.64C46.6529 18.104 45.9489 18.336 45.0529 18.336C44.5249 18.336 44.0609 18.264 43.6609 18.12C43.2609 17.992 42.9249 17.792 42.6529 17.52C42.3009 17.168 42.0689 16.736 41.9569 16.224C41.8449 15.696 41.7889 15.016 41.7889 14.184V6.072H39.7729V5.592H41.7889V2.424C42.4609 2.424 43.0769 2.368 43.6369 2.256C44.2129 2.128 44.7489 1.928 45.2449 1.656ZM54.9086 5.256C56.0766 5.256 57.1006 5.472 57.9806 5.904C58.8606 6.336 59.5486 7.032 60.0446 7.992C60.5406 8.952 60.7886 10.224 60.7886 11.808C60.7886 13.392 60.5406 14.664 60.0446 15.624C59.5486 16.568 58.8606 17.256 57.9806 17.688C57.1006 18.12 56.0766 18.336 54.9086 18.336C53.7726 18.336 52.7566 18.12 51.8606 17.688C50.9806 17.256 50.2846 16.568 49.7726 15.624C49.2766 14.664 49.0286 13.392 49.0286 11.808C49.0286 10.224 49.2766 8.952 49.7726 7.992C50.2846 7.032 50.9806 6.336 51.8606 5.904C52.7566 5.472 53.7726 5.256 54.9086 5.256ZM54.9086 5.736C54.2686 5.736 53.7326 6.216 53.3006 7.176C52.8686 8.12 52.6526 9.664 52.6526 11.808C52.6526 13.952 52.8686 15.496 53.3006 16.44C53.7326 17.384 54.2686 17.856 54.9086 17.856C55.5646 17.856 56.1006 17.384 56.5166 16.44C56.9486 15.496 57.1646 13.952 57.1646 11.808C57.1646 9.664 56.9486 8.12 56.5166 7.176C56.1006 6.216 55.5646 5.736 54.9086 5.736Z" fill="white"/>
<path d="M80.0469 17.712L80.4789 17.832C80.3509 18.712 80.1509 19.464 79.8789 20.088C79.6069 20.728 79.2549 21.224 78.8229 21.576C78.4869 21.848 78.0469 22.072 77.5029 22.248C76.9749 22.424 76.3829 22.512 75.7269 22.512C74.8469 22.512 73.9829 22.376 73.1349 22.104C72.3029 21.832 71.4549 21.496 70.5909 21.096C69.7269 20.712 68.8149 20.336 67.8549 19.968C67.7429 19.936 67.6309 19.896 67.5189 19.848C67.4229 19.816 67.3429 19.8 67.2789 19.8C66.9749 19.944 66.6389 20.064 66.2709 20.16C65.9189 20.256 65.5829 20.304 65.2629 20.304C64.9429 20.304 64.6709 20.256 64.4469 20.16C64.2389 20.064 64.1349 19.904 64.1349 19.68C64.1349 19.248 64.5749 19.032 65.4549 19.032C66.0149 19.032 66.6229 19.144 67.2789 19.368C67.8709 19.208 68.3749 19.024 68.7909 18.816C69.2229 18.624 69.6629 18.44 70.1109 18.264C70.5749 18.088 71.1349 17.976 71.7909 17.928L71.8149 18.312C71.3029 18.36 70.8629 18.448 70.4949 18.576C70.1429 18.72 69.7829 18.872 69.4149 19.032C69.0469 19.192 68.6149 19.344 68.1189 19.488C69.2549 19.568 70.3109 19.648 71.2869 19.728C72.2629 19.824 73.1669 19.88 73.9989 19.896C74.8309 19.928 75.5829 19.896 76.2549 19.8C77.2469 19.688 78.0309 19.472 78.6069 19.152C79.1829 18.832 79.6629 18.352 80.0469 17.712ZM71.2389 0.671999C72.9349 0.671999 74.4149 1.016 75.6789 1.704C76.9589 2.392 77.9509 3.384 78.6549 4.68C79.3589 5.96 79.7109 7.52 79.7109 9.36C79.7109 11.152 79.3509 12.72 78.6309 14.064C77.9109 15.408 76.9029 16.456 75.6069 17.208C74.3269 17.96 72.8629 18.336 71.2149 18.336C69.5189 18.336 68.0309 17.992 66.7509 17.304C65.4869 16.616 64.5029 15.624 63.7989 14.328C63.0949 13.032 62.7429 11.472 62.7429 9.648C62.7429 7.856 63.1029 6.288 63.8229 4.944C64.5589 3.6 65.5589 2.552 66.8229 1.8C68.1029 1.048 69.5749 0.671999 71.2389 0.671999ZM71.1429 1.104C70.2469 1.104 69.4629 1.464 68.7909 2.184C68.1349 2.904 67.6229 3.896 67.2549 5.16C66.9029 6.424 66.7269 7.888 66.7269 9.552C66.7269 11.248 66.9269 12.728 67.3269 13.992C67.7429 15.24 68.2949 16.208 68.9829 16.896C69.6869 17.568 70.4629 17.904 71.3109 17.904C72.2069 17.904 72.9829 17.544 73.6389 16.824C74.3109 16.104 74.8229 15.112 75.1749 13.848C75.5429 12.568 75.7269 11.104 75.7269 9.456C75.7269 7.744 75.5189 6.264 75.1029 5.016C74.7029 3.768 74.1509 2.808 73.4469 2.136C72.7589 1.448 71.9909 1.104 71.1429 1.104Z" fill="#F8BD49"/>
</svg>
