<svg width="81" height="23" viewBox="0 0 81 23" fill="none" xmlns="http://www.w3.org/2000/svg">
<path d="M0.816 1.15253C1.216 1.16853 1.752 1.18453 2.424 1.20053C3.112 1.21653 3.792 1.22453 4.464 1.22453C5.232 1.22453 5.976 1.21653 6.696 1.20053C7.416 1.18453 7.928 1.17653 8.232 1.17653C9.72 1.17653 10.952 1.34453 11.928 1.68053C12.92 2.00053 13.656 2.47253 14.136 3.09653C14.632 3.72053 14.88 4.47253 14.88 5.35253C14.88 5.89653 14.768 6.44853 14.544 7.00853C14.32 7.55253 13.936 8.06453 13.392 8.54453C12.864 9.00853 12.136 9.38453 11.208 9.67253C10.28 9.94453 9.112 10.0805 7.704 10.0805H5.4V9.60053H7.464C8.408 9.60053 9.12 9.42453 9.6 9.07253C10.096 8.70453 10.432 8.22453 10.608 7.63253C10.8 7.02453 10.896 6.35253 10.896 5.61653C10.896 4.35253 10.672 3.37653 10.224 2.68853C9.776 1.98453 9.008 1.63253 7.92 1.63253C7.296 1.63253 6.888 1.76853 6.696 2.04053C6.52 2.31253 6.432 2.86453 6.432 3.69653V15.6005C6.432 16.1765 6.472 16.6085 6.552 16.8965C6.648 17.1845 6.824 17.3765 7.08 17.4725C7.336 17.5685 7.72 17.6325 8.232 17.6645V18.1445C7.8 18.1125 7.256 18.0965 6.6 18.0965C5.944 18.0805 5.28 18.0725 4.608 18.0725C3.84 18.0725 3.112 18.0805 2.424 18.0965C1.752 18.0965 1.216 18.1125 0.816 18.1445V17.6645C1.328 17.6325 1.712 17.5685 1.968 17.4725C2.224 17.3765 2.392 17.1845 2.472 16.8965C2.568 16.6085 2.616 16.1765 2.616 15.6005V3.69653C2.616 3.10453 2.568 2.67253 2.472 2.40053C2.392 2.11253 2.216 1.92053 1.944 1.82453C1.688 1.71253 1.312 1.64853 0.816 1.63253V1.15253ZM5.352 9.67253C6.04 9.68853 6.632 9.72053 7.128 9.76853C7.64 9.81653 8.088 9.86453 8.472 9.91253C8.856 9.94453 9.2 9.96853 9.504 9.98453C10.96 10.1125 12.032 10.4245 12.72 10.9205C13.424 11.4165 13.88 12.1605 14.088 13.1525L14.64 15.6245C14.784 16.2645 14.936 16.7125 15.096 16.9685C15.256 17.2245 15.488 17.3525 15.792 17.3525C16 17.3365 16.168 17.2885 16.296 17.2085C16.44 17.1125 16.592 16.9765 16.752 16.8005L17.088 17.0885C16.656 17.5845 16.192 17.9365 15.696 18.1445C15.2 18.3685 14.6 18.4805 13.896 18.4805C13.032 18.4805 12.32 18.2965 11.76 17.9285C11.2 17.5605 10.832 16.8805 10.656 15.8885L10.224 13.4885C10.112 12.8165 9.976 12.2325 9.816 11.7365C9.656 11.2245 9.432 10.8245 9.144 10.5365C8.872 10.2325 8.488 10.0805 7.992 10.0805H5.4L5.352 9.67253ZM23.3852 5.40053C24.7932 5.40053 25.8972 5.81653 26.6972 6.64853C27.4972 7.48053 27.8972 8.84053 27.8972 10.7285H20.0012L19.9532 10.2725H24.8732C24.8892 9.48853 24.8412 8.76853 24.7292 8.11253C24.6172 7.44053 24.4412 6.90453 24.2012 6.50453C23.9612 6.10453 23.6412 5.90453 23.2412 5.90453C22.6812 5.90453 22.2012 6.25653 21.8012 6.96053C21.4172 7.66453 21.1852 8.83253 21.1052 10.4645L21.1772 10.6085C21.1612 10.8005 21.1452 11.0005 21.1292 11.2085C21.1292 11.4165 21.1292 11.6325 21.1292 11.8565C21.1292 12.9605 21.2812 13.8565 21.5852 14.5445C21.9052 15.2325 22.3052 15.7365 22.7852 16.0565C23.2652 16.3605 23.7532 16.5125 24.2492 16.5125C24.5852 16.5125 24.9292 16.4645 25.2812 16.3685C25.6492 16.2565 26.0172 16.0645 26.3852 15.7925C26.7532 15.5045 27.0972 15.1045 27.4172 14.5925L27.8492 14.7365C27.6572 15.3445 27.3532 15.9365 26.9372 16.5125C26.5212 17.0885 25.9932 17.5605 25.3532 17.9285C24.7132 18.2965 23.9452 18.4805 23.0492 18.4805C21.9612 18.4805 21.0012 18.2485 20.1692 17.7845C19.3372 17.3205 18.6812 16.6165 18.2012 15.6725C17.7372 14.7285 17.5052 13.5285 17.5052 12.0725C17.5052 10.5845 17.7532 9.34453 18.2492 8.35253C18.7612 7.36053 19.4572 6.62453 20.3372 6.14453C21.2332 5.64853 22.2492 5.40053 23.3852 5.40053ZM34.0389 5.40053C34.7109 5.40053 35.2949 5.48853 35.7909 5.66453C36.3029 5.82453 36.6709 5.98453 36.8949 6.14453C37.4389 6.51253 37.7749 6.27253 37.9029 5.42453H38.4069C38.3749 5.87253 38.3509 6.42453 38.3349 7.08053C38.3189 7.72053 38.3109 8.57653 38.3109 9.64853H37.8069C37.7269 9.05653 37.5749 8.47253 37.3509 7.89653C37.1269 7.32053 36.7989 6.84853 36.3669 6.48053C35.9509 6.11253 35.4069 5.92853 34.7349 5.92853C34.2709 5.92853 33.8789 6.06453 33.5589 6.33653C33.2389 6.59253 33.0789 6.96853 33.0789 7.46453C33.0789 7.94453 33.2229 8.36853 33.5109 8.73653C33.7989 9.08853 34.1669 9.43253 34.6149 9.76853C35.0789 10.0885 35.5589 10.4325 36.0549 10.8005C36.5829 11.2005 37.0629 11.6005 37.4949 12.0005C37.9269 12.3845 38.2709 12.8085 38.5269 13.2725C38.7829 13.7365 38.9109 14.2885 38.9109 14.9285C38.9109 15.6485 38.7029 16.2805 38.2869 16.8245C37.8709 17.3525 37.3189 17.7605 36.6309 18.0485C35.9589 18.3365 35.2069 18.4805 34.3749 18.4805C33.8949 18.4805 33.4629 18.4325 33.0789 18.3365C32.7109 18.2405 32.3909 18.1205 32.1189 17.9765C31.9109 17.8805 31.7109 17.7925 31.5189 17.7125C31.3429 17.6165 31.1749 17.5365 31.0149 17.4725C30.8549 17.4245 30.7109 17.4805 30.5829 17.6405C30.4709 17.8005 30.3829 18.0245 30.3189 18.3125H29.8149C29.8469 17.8005 29.8709 17.1765 29.8869 16.4405C29.9029 15.7045 29.9109 14.7285 29.9109 13.5125H30.4149C30.5109 14.3765 30.6869 15.1445 30.9429 15.8165C31.1989 16.4725 31.5429 16.9925 31.9749 17.3765C32.4229 17.7445 32.9829 17.9285 33.6549 17.9285C33.9269 17.9285 34.1909 17.8725 34.4469 17.7605C34.7029 17.6485 34.9109 17.4645 35.0709 17.2085C35.2469 16.9525 35.3349 16.6245 35.3349 16.2245C35.3349 15.5205 35.1029 14.9365 34.6389 14.4725C34.1909 14.0085 33.6149 13.5045 32.9109 12.9605C32.3989 12.5445 31.9109 12.1365 31.4469 11.7365C30.9989 11.3205 30.6309 10.8725 30.3429 10.3925C30.0549 9.89653 29.9109 9.33653 29.9109 8.71253C29.9109 7.99253 30.1029 7.38453 30.4869 6.88853C30.8709 6.39253 31.3749 6.02453 31.9989 5.78453C32.6389 5.52853 33.3189 5.40053 34.0389 5.40053ZM45.2449 1.80053V5.73653H48.0769V6.21653H45.2449V15.9125C45.2449 16.3925 45.3329 16.7365 45.5089 16.9445C45.6849 17.1365 45.9489 17.2325 46.3009 17.2325C46.5889 17.2325 46.8769 17.1285 47.1649 16.9205C47.4529 16.6965 47.7089 16.3205 47.9329 15.7925L48.3409 16.0085C48.0849 16.7285 47.6929 17.3205 47.1649 17.7845C46.6529 18.2485 45.9489 18.4805 45.0529 18.4805C44.5249 18.4805 44.0609 18.4085 43.6609 18.2645C43.2609 18.1365 42.9249 17.9365 42.6529 17.6645C42.3009 17.3125 42.0689 16.8805 41.9569 16.3685C41.8449 15.8405 41.7889 15.1605 41.7889 14.3285V6.21653H39.7729V5.73653H41.7889V2.56853C42.4609 2.56853 43.0769 2.51253 43.6369 2.40053C44.2129 2.27253 44.7489 2.07253 45.2449 1.80053ZM54.9086 5.40053C56.0766 5.40053 57.1006 5.61653 57.9806 6.04853C58.8606 6.48053 59.5486 7.17653 60.0446 8.13653C60.5406 9.09653 60.7886 10.3685 60.7886 11.9525C60.7886 13.5365 60.5406 14.8085 60.0446 15.7685C59.5486 16.7125 58.8606 17.4005 57.9806 17.8325C57.1006 18.2645 56.0766 18.4805 54.9086 18.4805C53.7726 18.4805 52.7566 18.2645 51.8606 17.8325C50.9806 17.4005 50.2846 16.7125 49.7726 15.7685C49.2766 14.8085 49.0286 13.5365 49.0286 11.9525C49.0286 10.3685 49.2766 9.09653 49.7726 8.13653C50.2846 7.17653 50.9806 6.48053 51.8606 6.04853C52.7566 5.61653 53.7726 5.40053 54.9086 5.40053ZM54.9086 5.88053C54.2686 5.88053 53.7326 6.36053 53.3006 7.32053C52.8686 8.26453 52.6526 9.80853 52.6526 11.9525C52.6526 14.0965 52.8686 15.6405 53.3006 16.5845C53.7326 17.5285 54.2686 18.0005 54.9086 18.0005C55.5646 18.0005 56.1006 17.5285 56.5166 16.5845C56.9486 15.6405 57.1646 14.0965 57.1646 11.9525C57.1646 9.80853 56.9486 8.26453 56.5166 7.32053C56.1006 6.36053 55.5646 5.88053 54.9086 5.88053Z" fill="#222222"/>
<path d="M80.0469 17.8565L80.4789 17.9765C80.3509 18.8565 80.1509 19.6085 79.8789 20.2325C79.6069 20.8725 79.2549 21.3685 78.8229 21.7205C78.4869 21.9925 78.0469 22.2165 77.5029 22.3925C76.9749 22.5685 76.3829 22.6565 75.7269 22.6565C74.8469 22.6565 73.9829 22.5205 73.1349 22.2485C72.3029 21.9765 71.4549 21.6405 70.5909 21.2405C69.7269 20.8565 68.8149 20.4805 67.8549 20.1125C67.7429 20.0805 67.6309 20.0405 67.5189 19.9925C67.4229 19.9605 67.3429 19.9445 67.2789 19.9445C66.9749 20.0885 66.6389 20.2085 66.2709 20.3045C65.9189 20.4005 65.5829 20.4485 65.2629 20.4485C64.9429 20.4485 64.6709 20.4005 64.4469 20.3045C64.2389 20.2085 64.1349 20.0485 64.1349 19.8245C64.1349 19.3925 64.5749 19.1765 65.4549 19.1765C66.0149 19.1765 66.6229 19.2885 67.2789 19.5125C67.8709 19.3525 68.3749 19.1685 68.7909 18.9605C69.2229 18.7685 69.6629 18.5845 70.1109 18.4085C70.5749 18.2325 71.1349 18.1205 71.7909 18.0725L71.8149 18.4565C71.3029 18.5045 70.8629 18.5925 70.4949 18.7205C70.1429 18.8645 69.7829 19.0165 69.4149 19.1765C69.0469 19.3365 68.6149 19.4885 68.1189 19.6325C69.2549 19.7125 70.3109 19.7925 71.2869 19.8725C72.2629 19.9685 73.1669 20.0245 73.9989 20.0405C74.8309 20.0725 75.5829 20.0405 76.2549 19.9445C77.2469 19.8325 78.0309 19.6165 78.6069 19.2965C79.1829 18.9765 79.6629 18.4965 80.0469 17.8565ZM71.2389 0.81653C72.9349 0.81653 74.4149 1.16053 75.6789 1.84853C76.9589 2.53653 77.9509 3.52853 78.6549 4.82453C79.3589 6.10453 79.7109 7.66453 79.7109 9.50453C79.7109 11.2965 79.3509 12.8645 78.6309 14.2085C77.9109 15.5525 76.9029 16.6005 75.6069 17.3525C74.3269 18.1045 72.8629 18.4805 71.2149 18.4805C69.5189 18.4805 68.0309 18.1365 66.7509 17.4485C65.4869 16.7605 64.5029 15.7685 63.7989 14.4725C63.0949 13.1765 62.7429 11.6165 62.7429 9.79253C62.7429 8.00053 63.1029 6.43253 63.8229 5.08853C64.5589 3.74453 65.5589 2.69653 66.8229 1.94453C68.1029 1.19253 69.5749 0.81653 71.2389 0.81653ZM71.1429 1.24853C70.2469 1.24853 69.4629 1.60853 68.7909 2.32853C68.1349 3.04853 67.6229 4.04053 67.2549 5.30453C66.9029 6.56853 66.7269 8.03253 66.7269 9.69653C66.7269 11.3925 66.9269 12.8725 67.3269 14.1365C67.7429 15.3845 68.2949 16.3525 68.9829 17.0405C69.6869 17.7125 70.4629 18.0485 71.3109 18.0485C72.2069 18.0485 72.9829 17.6885 73.6389 16.9685C74.3109 16.2485 74.8229 15.2565 75.1749 13.9925C75.5429 12.7125 75.7269 11.2485 75.7269 9.60053C75.7269 7.88853 75.5189 6.40853 75.1029 5.16053C74.7029 3.91253 74.1509 2.95253 73.4469 2.28053C72.7589 1.59253 71.9909 1.24853 71.1429 1.24853Z" fill="#F8BD49"/>
</svg>
