<svg width="24" height="24" viewBox="0 0 24 24" fill="none" xmlns="http://www.w3.org/2000/svg">
<path d="M20.6824 7.60351C20.8016 7.48913 20.8061 7.29901 20.6917 7.17938L20.5897 7.07213C20.5342 7.01363 20.4589 6.98063 20.379 6.97876C20.2969 6.97988 20.2226 7.00651 20.1645 7.06201C20.148 7.07776 20.1349 7.09313 20.1236 7.11038L19.1047 8.63138C19.2142 8.68313 19.3222 8.73938 19.4276 8.80163L20.6824 7.60351Z" fill="#F8BD49"/>
<path d="M1.23975 17.3369C1.81312 20.4817 4.5675 22.8749 7.875 22.8749H16.125C19.4325 22.8749 22.1869 20.4817 22.7602 17.3369C20.9261 18.5144 16.4437 19.1249 12 19.1249C7.55625 19.1249 3.07387 18.5144 1.23975 17.3369ZM15.75 21.3749H16.125C18.0731 21.3749 19.8521 20.3017 20.7679 18.5744L21.4309 18.9258C20.3846 20.899 18.3517 22.1249 16.125 22.1249H15.75V21.3749ZM14.25 21.3749H15V22.1249H14.25V21.3749Z" fill="#F8BD49"/>
<path d="M15.8201 6.108L15.2325 2.28938C15.129 1.61475 14.5578 1.125 13.875 1.125C13.1921 1.125 12.621 1.61475 12.5175 2.28938L11.8972 6.31988L13.2663 7.38488L15.8201 6.108ZM14.25 2.25H15V3H14.25V2.25ZM14.25 3.75H15V4.5H14.25V3.75ZM14.25 5.25H15V6H14.25V5.25ZM12.75 2.25H13.5V3H12.75V2.25ZM12.75 3.75H13.5V4.5H12.75V3.75ZM12.75 5.25H13.5V6H12.75V5.25Z" fill="#F8BD49"/>
<path d="M14.9418 9.9719C14.8177 10.0904 14.7014 10.2194 14.5972 10.3548L12.8598 12.6115C12.9595 12.9138 13.03 13.2284 13.0732 13.5516L13.3904 13.2344L16.3904 16.2344L15.8602 16.7646L13.1137 14.0181C13.1167 14.0958 13.1249 14.1719 13.1249 14.2499C13.1249 15.8759 12.3685 17.3845 11.1284 18.3666C11.4142 18.3715 11.7037 18.3749 11.9999 18.3749C12.9685 18.3749 13.8813 18.3471 14.7378 18.298L19.2029 15.1814C19.3435 15.0831 19.4774 14.9736 19.6012 14.8555L19.6649 14.7944C21.0115 13.5096 21.0614 11.3691 19.7767 10.0225C18.4915 8.6759 16.3507 8.62602 15.0048 9.91115L14.9418 9.9719ZM17.3598 15.265L14.3598 12.265L14.89 11.7348L17.89 14.7348L17.3598 15.265ZM16.39 10.2348L19.39 13.2348L18.8598 13.765L15.8598 10.765L16.39 10.2348Z" fill="#F8BD49"/>
<path d="M20.3199 9.50522C20.4072 9.59672 20.4879 9.69235 20.5651 9.78947L22.4776 7.96397C22.55 7.8946 22.5916 7.8016 22.5939 7.70147C22.5965 7.60135 22.5594 7.5061 22.4904 7.43372C22.3479 7.28485 22.1097 7.2781 21.9601 7.42135L21.2007 8.14622C21.2007 8.14622 21.2004 8.1466 21.2004 8.14697L20.0476 9.24685C20.1406 9.3286 20.2325 9.41335 20.3199 9.50522Z" fill="#F8BD49"/>
<path d="M22.2348 9.23229L20.9805 10.4297C21.0375 10.538 21.0888 10.6483 21.1353 10.76L22.7006 9.81466C22.7197 9.80304 22.737 9.78991 22.752 9.77566C22.8108 9.71941 22.8438 9.64479 22.8461 9.56454C22.848 9.48429 22.8183 9.40816 22.7628 9.35004L22.6605 9.24279C22.605 9.18429 22.53 9.15129 22.4497 9.14941C22.3597 9.15241 22.293 9.17716 22.2348 9.23229Z" fill="#F8BD49"/>
<path d="M20.6277 14.8306C20.4942 15.0079 20.3491 15.1789 20.1833 15.3372L20.1196 15.3979C19.9684 15.5423 19.8042 15.6766 19.6324 15.7962L16.2061 18.1876C20.4166 17.7927 22.8751 16.8492 22.8751 16.1251C22.8751 15.8187 22.2784 15.3046 20.6277 14.8306Z" fill="#F8BD49"/>
<path d="M11.0343 6.59937C10.8761 7.03662 10.6537 7.78437 10.5532 8.74174L12.5227 7.75699L11.0343 6.59937Z" fill="#F8BD49"/>
<path d="M12.524 11.8189L14.0033 9.89741C14.1308 9.73166 14.2722 9.57454 14.4237 9.42979L14.4871 9.36903C15.2318 8.65841 16.1757 8.28528 17.1312 8.23841C17.0086 7.45991 16.8173 6.86216 16.6857 6.51416L10.5042 9.60491C10.5038 9.64091 10.5016 9.67466 10.5012 9.71104C11.3581 10.2087 12.062 10.9395 12.524 11.8189Z" fill="#F8BD49"/>
<path d="M5.16075 17.8354C6.43725 18.0664 7.99125 18.243 9.78187 18.3248C11.3591 17.5853 12.375 15.996 12.375 14.25C12.375 11.8946 10.5551 9.95925 8.24775 9.76875C8.23125 7.51837 8.06588 5.25 6.375 5.25V6C7.36612 6 7.48388 7.93688 7.49813 9.76912C5.19263 9.9615 3.375 11.8961 3.375 14.25C3.375 15.6532 4.04288 16.9871 5.16075 17.8354ZM7.125 10.875C7.125 11.028 7.41713 11.25 7.875 11.25C8.33287 11.25 8.625 11.028 8.625 10.875H9.375C9.375 11.5058 8.71613 12 7.875 12C7.03387 12 6.375 11.5058 6.375 10.875H7.125ZM4.515 12.5831L5.18663 12.9172C5.08125 13.1287 5.00137 13.353 4.94925 13.5833L4.21762 13.4175C4.28325 13.1287 4.383 12.8479 4.515 12.5831ZM4.875 14.25C4.875 15.3975 5.51362 16.4276 6.54187 16.9384L6.20775 17.61C4.92338 16.9714 4.125 15.684 4.125 14.25H4.875Z" fill="#F8BD49"/>
<path d="M3.795 17.5427C3.21713 16.8242 2.8365 15.9629 2.69438 15.0479C1.54725 15.46 1.125 15.8766 1.125 16.1252C1.125 16.5745 2.07225 17.1077 3.795 17.5427Z" fill="#F8BD49"/>
<path d="M5.62497 9H7.46209C7.28772 8.14538 6.53059 7.5 5.62497 7.5H3.78784C3.96184 8.35462 4.71934 9 5.62497 9Z" fill="#F8BD49"/>
</svg>
