<svg width="24" height="24" viewBox="0 0 24 24" fill="none" xmlns="http://www.w3.org/2000/svg">
<g clip-path="url(#clip0_119_211)">
<path d="M14.6736 16.9219L10.2037 19.9019C10.0074 20.0324 9.89062 20.2514 9.89062 20.4869V24H21.1406V20.4375C21.1406 18.4991 19.5634 16.9219 17.625 16.9219H14.6736ZM12.7031 21.8438H11.2969V20.4375H12.7031V21.8438Z" fill="#F8BD49"/>
<path d="M8.48438 20.487C8.48438 19.7804 8.83524 19.124 9.4237 18.7319L12.1385 16.9219H6.375C4.43658 16.9219 2.85938 18.4991 2.85938 20.4375V24H8.48438V20.487Z" fill="#F8BD49"/>
<path d="M7.07812 6.13997V7.03125H16.9219V6.13997C17.809 5.47875 18.3281 4.52227 18.3281 3.51562C18.3281 1.5772 16.4357 0 14.1094 0C12.7858 0 11.2969 0.808594 11.2969 2.10938H9.89062C9.89062 1.35441 10.1838 0.658406 10.6718 0.0847969C10.4145 0.044625 10.1577 0 9.89062 0C7.56427 0 5.67188 1.5772 5.67188 3.51562C5.67188 4.52227 6.19097 5.47875 7.07812 6.13997Z" fill="#F8BD49"/>
<path d="M16.9219 8.4375H7.07812V10.5938C7.07812 13.3074 9.28636 15.5156 12 15.5156C14.7136 15.5156 16.9219 13.3074 16.9219 10.5938V8.4375Z" fill="#F8BD49"/>
</g>
<defs>
<clipPath id="clip0_119_211">
<rect width="24" height="24" fill="white"/>
</clipPath>
</defs>
</svg>
